<svg width="598" height="446" viewBox="0 0 598 446" fill="none" xmlns="http://www.w3.org/2000/svg">
<path d="M574.104 181.098H541.233V179.046H572.049V156.987H574.104V181.098Z" fill="#FFFF01"/>
<path d="M63.8937 321.797H61.8393V261.468H6.40479V259.416H63.8937V321.797Z" fill="#FFFF01"/>
<path d="M493.434 364.718H482.443V353.979H484.498V362.666H493.434V364.718Z" fill="#FFFF01"/>
<path d="M90.8404 30.0023H76.1172V27.9161H88.786V12.4919H90.8404V30.0023Z" fill="#FFFF01"/>
<path d="M105.872 50.2145H103.817V38.8943H116.383V40.9463H105.872V50.2145Z" fill="#FFFF01"/>
<path d="M483.471 40.9462H471.145V32.3962H473.233V38.8942H483.471V40.9462Z" fill="#FFFF01"/>
<path d="M371.026 445.088L227.526 437.393L200.34 435.922L195.238 435.649L185.753 417.249L184.658 415.129L175.481 397.31L351.235 406.75L359.864 423.473L360.377 424.465L371.026 445.088Z" fill="#A3A3A3"/>
<path d="M489.257 261.468L432.521 349.601L431.254 351.619L404.547 393.104L403.246 395.122L371.026 445.156L351.235 406.818L469.466 223.13L489.257 261.468Z" fill="#C0C0C0"/>
<path d="M327.302 436.196L253.069 432.639L251.118 428.877L325.35 432.4L327.302 436.196Z" fill="#5E5E5E"/>
<path d="M221.705 426.107L227.526 437.393L200.34 435.922L194.587 424.807L221.705 426.107Z" fill="#5E5E5E"/>
<path d="M188.322 404.253L203.935 405.005L207.804 412.495L192.191 411.777L188.322 404.253Z" fill="#5E5E5E"/>
<path d="M456.712 272.916L359.498 423.982L361.226 425.091L458.44 274.025L456.712 272.916Z" fill="#A3A3A3"/>
<path d="M360.412 423.473L360.377 424.465L360.309 425.525L185.753 417.249L184.658 415.129L359.864 423.473H360.412Z" fill="#C0C0C0"/>
<path d="M428.858 308.527L424.543 300.148L428.378 294.197L432.693 302.576L428.858 308.527ZM426.906 300.216L429.063 304.389L430.33 302.439L428.173 298.267L426.906 300.216Z" fill="#A3A3A3"/>
<path d="M434.267 300.08L429.953 291.701L433.788 285.75L438.102 294.129L434.267 300.08ZM432.316 291.803L434.473 295.976L435.74 294.026L433.583 289.854L432.316 291.803Z" fill="#A3A3A3"/>
<path d="M439.712 291.667L435.397 283.288L439.232 277.337L443.547 285.716L439.712 291.667ZM437.76 283.356L439.917 287.528L441.184 285.579L439.027 281.407L437.76 283.356Z" fill="#A3A3A3"/>
<path d="M445.121 283.219L440.807 274.84L444.642 268.889L448.956 277.268L445.121 283.219ZM443.17 274.943L445.327 279.115L446.594 277.166L444.437 272.993L443.17 274.943Z" fill="#A3A3A3"/>
<path d="M461.112 282.501L453.1 267.008L475.39 232.398L483.402 247.891L461.112 282.501ZM455.496 267.111L461.317 278.397L481.039 247.754L475.219 236.468L455.496 267.111Z" fill="#A3A3A3"/>
<path d="M463.954 263.554C464.844 265.298 464.707 268.069 463.645 269.71C462.584 271.386 460.975 271.318 460.084 269.573C459.194 267.829 459.331 265.059 460.393 263.417C461.454 261.776 463.063 261.844 463.954 263.554Z" fill="#5E5E5E"/>
<path d="M470.185 253.876C471.076 255.62 470.939 258.39 469.877 260.032C468.816 261.708 467.207 261.639 466.316 259.895C465.426 258.151 465.563 255.381 466.624 253.739C467.686 252.063 469.295 252.132 470.185 253.876Z" fill="#5E5E5E"/>
<path d="M476.417 244.197C477.307 245.941 477.17 248.711 476.109 250.353C475.047 252.029 473.438 251.96 472.548 250.216C471.658 248.472 471.794 245.702 472.856 244.06C473.917 242.384 475.527 242.453 476.417 244.197Z" fill="#5E5E5E"/>
<path d="M404.547 393.104L403.246 395.122L392.323 373.918L394.138 372.96L404.547 393.104Z" fill="#A3A3A3"/>
<path d="M432.521 349.601L431.255 351.619L420.332 330.415L422.147 329.458L432.521 349.601Z" fill="#A3A3A3"/>
<path d="M351.27 406.818L469.466 223.13L293.678 213.622L175.481 397.31L351.27 406.818Z" fill="#CECECE"/>
<path d="M203.285 383.733L289.022 387.837L388.489 233.253L302.752 229.149L203.285 383.733Z" fill="#A3A3A3"/>
<path d="M336.957 336.811L345.826 337.426C346.339 337.46 346.819 337.221 347.093 336.776L371.848 298.301C372.43 297.378 371.814 296.181 370.718 296.147L361.713 295.702C361.199 295.668 360.72 295.907 360.446 296.352L335.793 334.622C335.314 335.545 335.896 336.742 336.957 336.811Z" fill="#A3A3A3"/>
<path d="M369.657 321.386L377.463 309.28C378.319 307.98 379.792 307.193 381.367 307.262L395.713 307.946C399.103 308.117 401.02 311.844 399.206 314.683L391.433 326.79C390.577 328.124 389.105 328.876 387.53 328.808L373.149 328.09C369.759 327.953 367.842 324.225 369.657 321.386Z" fill="#A3A3A3"/>
<path d="M391.262 333.972C391.228 333.972 391.193 333.972 391.125 333.972L361.336 332.501C360.377 332.467 359.521 331.92 359.111 331.065C358.665 330.21 358.734 329.218 359.248 328.397L375.409 303.329C375.922 302.542 376.847 302.063 377.771 302.098L407.526 303.534C408.485 303.568 409.341 304.115 409.752 304.97C410.197 305.825 410.162 306.817 409.615 307.638L393.522 332.741C393.008 333.493 392.152 333.972 391.262 333.972ZM377.634 304.184C377.429 304.184 377.224 304.286 377.121 304.457L360.96 329.526C360.788 329.8 360.891 330.039 360.925 330.142C360.96 330.244 361.131 330.449 361.439 330.484L391.228 331.954C391.467 331.92 391.639 331.852 391.776 331.681L407.868 306.578C408.04 306.304 407.937 306.065 407.903 305.962C407.868 305.86 407.697 305.654 407.389 305.62L377.634 304.184Z" fill="#C0C0C0"/>
<path d="M182.124 387.016L187.774 397.994L214.275 356.681L208.66 345.805L182.124 387.016Z" fill="#C0C0C0"/>
<path d="M169.866 386.435L182.124 387.016L187.774 397.994L175.482 397.31L169.866 386.435Z" fill="#A3A3A3"/>
<path d="M234.169 325.764L228.554 314.888L261.698 263.349L267.313 274.224L234.169 325.764Z" fill="#C0C0C0"/>
<path d="M234.169 325.764L221.911 325.183L216.295 314.307L228.553 314.888L234.169 325.764Z" fill="#A3A3A3"/>
<path d="M287.207 243.342L281.591 232.432L269.333 231.851L274.949 242.726L287.207 243.342Z" fill="#A3A3A3"/>
<path d="M281.591 232.432L287.207 243.342L305.97 214.203L300.355 203.328L281.591 232.432Z" fill="#C0C0C0"/>
<path d="M169.866 386.435L182.124 387.016L208.66 345.771L196.402 345.19L169.866 386.435Z" fill="#CECECE"/>
<path d="M269.333 231.851L281.591 232.432L300.355 203.328L288.097 202.747L269.333 231.851Z" fill="#CECECE"/>
<path d="M216.295 314.273L228.519 314.888L261.698 263.349L249.44 262.768L216.295 314.273Z" fill="#CECECE"/>
<path d="M290.973 345.566L303.402 345.908L349.729 273.883L337.471 273.301L290.973 345.566Z" fill="#C0C0C0"/>
<path d="M222.151 374.02L228.793 363.726L241.051 364.307L234.409 374.602L222.151 374.02Z" fill="#C0C0C0"/>
<path d="M235.436 353.398L242.044 343.103L254.302 343.685L247.66 353.979L235.436 353.398Z" fill="#C0C0C0"/>
<path d="M248.687 332.809L255.329 322.481L267.553 323.096L260.944 333.391L248.687 332.809Z" fill="#C0C0C0"/>
<path d="M286.454 313.349L293.096 303.055L305.32 303.637L298.712 313.931L286.454 313.349Z" fill="#C0C0C0"/>
<path d="M267.553 323.096L274.195 312.768L286.453 313.349L279.811 323.678L267.553 323.096Z" fill="#C0C0C0"/>
<path d="M254.302 343.685L260.945 333.391L273.168 333.972L266.56 344.266L254.302 343.685Z" fill="#C0C0C0"/>
<path d="M261.938 312.187L268.58 301.892L280.838 302.474L274.195 312.768L261.938 312.187Z" fill="#C0C0C0"/>
<path d="M275.223 291.564L281.831 281.27L294.089 281.851L287.446 292.18L275.223 291.564Z" fill="#C0C0C0"/>
<path d="M294.089 281.851L300.731 271.557L312.989 272.138L306.347 282.433L294.089 281.851Z" fill="#C0C0C0"/>
<path d="M312.989 272.138L319.598 261.844L331.855 262.426L325.213 272.72L312.989 272.138Z" fill="#C0C0C0"/>
<path d="M273.168 333.972L279.811 323.678L292.069 324.259L285.426 334.553L273.168 333.972Z" fill="#C0C0C0"/>
<path d="M299.704 292.761L306.347 282.433L318.605 283.014L311.962 293.342L299.704 292.761Z" fill="#C0C0C0"/>
<path d="M280.838 302.474L287.446 292.18L299.704 292.761L293.096 303.055L280.838 302.474Z" fill="#C0C0C0"/>
<path d="M288.474 270.976L295.116 260.681L307.34 261.263L300.732 271.557L288.474 270.976Z" fill="#C0C0C0"/>
<path d="M307.34 261.263L313.982 250.934L326.24 251.516L319.598 261.844L307.34 261.263Z" fill="#C0C0C0"/>
<path d="M301.725 250.353L308.367 240.059L320.625 240.64L313.983 250.934L301.725 250.353Z" fill="#C0C0C0"/>
<path d="M319.598 261.844L332.883 241.222L345.106 241.803L331.856 262.426L319.598 261.844Z" fill="#C0C0C0"/>
<path d="M344.114 263.007L357.365 242.384L369.623 242.966L356.372 263.588L344.114 263.007Z" fill="#C0C0C0"/>
<path d="M271.148 376.346L284.433 355.757L296.657 356.339L283.406 376.927L271.148 376.346Z" fill="#C0C0C0"/>
<path d="M246.667 375.183L266.56 344.266L278.818 344.848L258.89 375.764L246.667 375.183Z" fill="#C0C0C0"/>
<path d="M249.543 263.007L237.285 262.391L235.847 252.815L243.927 252.097L249.543 263.007Z" fill="#A3A3A3"/>
<path d="M243.928 252.097L249.543 263.007L269.437 232.09L263.821 221.18L243.928 252.097Z" fill="#C0C0C0"/>
<path d="M196.505 345.429L184.247 344.847L182.809 335.237L190.89 334.553L196.505 345.429Z" fill="#A3A3A3"/>
<path d="M282.584 192.076L164.354 375.764L76.1172 204.73L194.279 20.9734L282.584 192.076Z" fill="#C0C0C0"/>
<path d="M267.587 193.855L266.115 196.317L168.839 343.069L98.4759 211.981L97.209 209.518L196.265 55.6523L267.587 193.855Z" fill="black"/>
<path d="M266.115 196.317L168.6 347.857L98.4761 211.98L196.026 60.4402L266.115 196.317Z" fill="#0029FA"/>
<path d="M266.115 196.317L168.599 347.857L164.354 339.683L261.903 188.143L266.115 196.317Z" fill="#F6FFE3"/>
<path d="M189.109 98.6074L240.161 197.514L161.169 320.223L110.152 221.317L189.109 98.6074Z" fill="white"/>
<path d="M182.707 148.403H176.715L169.49 159.62L168.839 169.983L184.008 199.429L208.01 162.117L192.842 132.705L182.707 148.403Z" fill="black"/>
<path d="M180.515 148.334H174.523L167.299 159.552L166.648 169.88L181.851 199.326L205.853 162.048L190.65 132.602L180.515 148.334Z" fill="#FFFF01"/>
<path d="M181.748 201.378L165.621 170.12L166.305 159.21L173.975 147.308H179.967L190.753 130.55L207.017 162.083L181.748 201.378ZM167.675 169.675L181.919 197.274L204.654 161.98L190.547 134.654L181.097 149.36H175.105L168.326 159.894L167.675 169.675Z" fill="#A0A00B"/>
<path d="M179.67 147.778L165.785 169.355L167.513 170.464L181.398 148.887L179.67 147.778Z" fill="#A0A00B"/>
<path d="M144.323 208.047H138.331L131.107 219.265L130.456 229.628L145.624 259.074L169.627 221.762L154.458 192.315L144.323 208.047Z" fill="black"/>
<path d="M142.132 207.979H136.14L128.916 219.197L128.265 229.525L143.433 258.971L167.436 221.693L152.267 192.247L142.132 207.979Z" fill="#FFFF01"/>
<path d="M143.365 261.023L127.238 229.764L127.923 218.855L135.592 206.953H141.584L152.37 190.195L168.634 221.727L143.365 261.023ZM129.292 229.32L143.536 256.919L166.271 221.625L152.165 194.299L142.714 209.005H136.722L129.943 219.539L129.292 229.32Z" fill="#A0A00B"/>
<path d="M141.282 207.42L127.397 228.997L129.125 230.106L143.01 208.53L141.282 207.42Z" fill="#A0A00B"/>
<path d="M188.322 257.945L194.074 269.129L170.072 306.407L164.319 295.258L164.559 291.393L164.97 284.895L172.195 273.677H175.961H178.187L188.322 257.945Z" fill="black"/>
<path d="M186.131 257.877L192.876 270.976L168.874 308.254L162.128 295.155L162.779 284.792L170.004 273.575L175.996 273.609L186.131 257.877Z" fill="#FFFF01"/>
<path d="M168.771 310.306L161.067 295.36L161.752 284.45L169.421 272.515H175.413L186.199 255.757L194.04 270.976L168.771 310.306ZM163.156 294.95L168.976 306.202L191.677 270.907L186.028 259.929L176.578 274.635H170.586L163.806 285.169L163.156 294.95Z" fill="#A0A00B"/>
<path d="M175.15 273.045L161.265 294.622L162.993 295.732L176.878 274.155L175.15 273.045Z" fill="#A0A00B"/>
<path d="M161.067 322.275L108.954 221.249L189.212 96.5554L241.325 197.582L161.067 322.275ZM111.35 221.385L161.272 318.171L238.963 197.48L189.041 100.694L111.35 221.385Z" fill="black"/>
<path d="M183.802 88.3132L104.845 211.023L112.788 226.447L191.78 103.772L183.802 88.3132Z" fill="#A3A3A3"/>
<path d="M106.043 211.091L112.926 224.395L190.616 103.703L183.734 90.3994L106.043 211.091ZM112.72 228.499L103.646 210.989L183.905 86.2954L192.944 103.84L112.72 228.499Z" fill="black"/>
<path d="M163.712 250.885L151.011 270.62L152.739 271.73L165.44 251.994L163.712 250.885Z" fill="black"/>
<path d="M201.514 192.157L188.813 211.892L190.542 213.002L203.242 193.266L201.514 192.157Z" fill="black"/>
<path d="M177.447 106.795L177.362 108.845L184.067 109.124L184.152 107.073L177.447 106.795Z" fill="black"/>
<path d="M180.022 102.094L179.453 113.708L181.505 113.808L182.073 102.194L180.022 102.094Z" fill="black"/>
<path d="M169.46 123.645L165.554 129.715L167.282 130.825L171.188 124.755L169.46 123.645Z" fill="black"/>
<path d="M177.742 118.033L174.112 123.676L171.031 117.759L174.694 112.082L177.742 118.033Z" fill="#A3A3A3"/>
<path d="M174.009 125.728L169.866 117.691L174.797 110.03L178.94 118.067L174.009 125.728ZM172.229 117.794L174.215 121.624L176.577 117.965L174.591 114.134L172.229 117.794Z" fill="black"/>
<path d="M164.354 375.764L152.096 375.183L63.8594 204.149L76.1173 204.73L164.354 375.764Z" fill="#A3A3A3"/>
<path d="M194.28 20.9735L182.056 20.3921L63.8594 204.149L76.1173 204.73L194.28 20.9735Z" fill="#A3A3A3"/>
<path d="M190.89 334.553L196.505 345.429L216.398 314.512L210.783 303.636L190.89 334.553Z" fill="#C0C0C0"/>
<path d="M550.376 103.977H288.371V70.5977H550.376V103.977ZM292.48 99.8729H546.233V74.7017H292.48V99.8729Z" fill="#27FFA2"/>
<path opacity="0.36" d="M547.896 102H290V330.387H547.896V102Z" fill="#27FFA2"/>
<g filter="url(#filter0_d_5_55)">
<path d="M415.745 256.96H403V155H415.745V167.745H428.49V186.862H441.235V199.607H453.98V212.352H441.235V225.097H428.49V244.215H415.745V256.96Z" fill="white"/>
</g>
<path d="M550.376 332.364H288.371V99.8728H550.376V332.364ZM292.48 328.26H546.233V103.977H292.48V328.26Z" fill="#27FFA2"/>
<path d="M306.724 90.8784C308.747 90.8784 310.387 89.24 310.387 87.219C310.387 85.1979 308.747 83.5596 306.724 83.5596C304.7 83.5596 303.06 85.1979 303.06 87.219C303.06 89.24 304.7 90.8784 306.724 90.8784Z" fill="#08FF9E"/>
<path d="M326.24 90.8784C328.264 90.8784 329.904 89.24 329.904 87.219C329.904 85.1979 328.264 83.5596 326.24 83.5596C324.217 83.5596 322.577 85.1979 322.577 87.219C322.577 89.24 324.217 90.8784 326.24 90.8784Z" fill="#08FF9E"/>
<path d="M345.757 90.8784C347.781 90.8784 349.421 89.24 349.421 87.219C349.421 85.1979 347.781 83.5596 345.757 83.5596C343.734 83.5596 342.094 85.1979 342.094 87.219C342.094 89.24 343.734 90.8784 345.757 90.8784Z" fill="#08FF9E"/>
<path d="M479.705 223.574L483.471 242.077L491.415 249.601L498.982 264.375L506.514 279.081L514.082 293.787L521.614 308.493H574.412L581.945 293.787L589.512 271.728V221.522L581.945 214.238L547.329 198.985L535.584 192.076L528.051 164.511H512.849L505.83 234.895L498.639 227.371L479.705 223.574Z" fill="white"/>
<path d="M491.004 242.077H483.471V249.601H491.004V242.077Z" fill="#1B1B19"/>
<path d="M483.471 227.371H475.938V242.077H483.471V227.371Z" fill="#1B1B19"/>
<path d="M498.947 249.601H491.415V264.307H498.947V249.601Z" fill="#1B1B19"/>
<path d="M574.31 214.169H566.777V234.929H574.31V214.169Z" fill="#1B1B19"/>
<path d="M581.979 308.493H514.082V316.017H581.979V308.493Z" fill="#1B1B19"/>
<path d="M506.514 264.375H498.981V279.081H506.514V264.375Z" fill="#1B1B19"/>
<path d="M514.047 279.081H506.514V293.787H514.047V279.081Z" fill="#1B1B19"/>
<path d="M521.614 293.787H514.082V308.493H521.614V293.787Z" fill="#1B1B19"/>
<path d="M581.945 293.787H574.412V308.493H581.945V293.787Z" fill="#1B1B19"/>
<path d="M589.478 271.728H581.945V293.787H589.478V271.728Z" fill="#1B1B19"/>
<path d="M597.045 221.522H589.512V271.728H597.045V221.522Z" fill="#1B1B19"/>
<path d="M505.795 227.371H498.263V234.895H505.795V227.371Z" fill="#1B1B19"/>
<path d="M589.478 213.964H581.945V221.488H589.478V213.964Z" fill="#1B1B19"/>
<path d="M581.945 206.714H566.777V214.238H581.945V206.714Z" fill="#1B1B19"/>
<path d="M528.017 156.987H512.849V164.511H528.017V156.987Z" fill="#1B1B19"/>
<path d="M554.998 206.611H547.465V227.371H554.998V206.611Z" fill="#1B1B19"/>
<path d="M566.777 199.156H547.465V206.68H566.777V199.156Z" fill="#1B1B19"/>
<path d="M535.584 164.511H528.051V227.336H535.584V164.511Z" fill="#1B1B19"/>
<path d="M512.849 164.511H505.316V256.406H512.849V164.511Z" fill="#1B1B19"/>
<path d="M547.363 191.461H528.051V198.985H547.363V191.461Z" fill="#1B1B19"/>
<path d="M498.639 219.812H475.938V227.337H498.639V219.812Z" fill="#1B1B19"/>
<defs>
<filter id="filter0_d_5_55" x="399" y="155" width="54.98" height="105.96" filterUnits="userSpaceOnUse" color-interpolation-filters="sRGB">
<feFlood flood-opacity="0" result="BackgroundImageFix"/>
<feColorMatrix in="SourceAlpha" type="matrix" values="0 0 0 0 0 0 0 0 0 0 0 0 0 0 0 0 0 0 127 0" result="hardAlpha"/>
<feOffset dx="-4" dy="4"/>
<feComposite in2="hardAlpha" operator="out"/>
<feColorMatrix type="matrix" values="0 0 0 0 0 0 0 0 0 0 0 0 0 0 0 0 0 0 1 0"/>
<feBlend mode="normal" in2="BackgroundImageFix" result="effect1_dropShadow_5_55"/>
<feBlend mode="normal" in="SourceGraphic" in2="effect1_dropShadow_5_55" result="shape"/>
</filter>
</defs>
</svg>
