<svg width="776" height="695" viewBox="0 0 776 695" fill="none" xmlns="http://www.w3.org/2000/svg">
<g clip-path="url(#clip0_2_30983)">
<path d="M642.999 48.6744L2.24561 419.001L3.74842 421.602L644.502 51.2756L642.999 48.6744Z" fill="#30F900"/>
<path d="M799.813 138.914L159.059 509.24L160.562 511.841L801.315 141.515L799.813 138.914Z" fill="#30F900"/>
<path d="M893.038 265.51L330.539 590.609L332.041 593.211L894.541 268.111L893.038 265.51Z" fill="#30F900"/>
<path d="M1049.34 355.815L486.842 680.915L488.345 683.516L1050.84 358.416L1049.34 355.815Z" fill="#30F900"/>
<path d="M12.8082 340.33L11.3042 342.93L619.64 694.883L621.144 692.283L12.8082 340.33Z" fill="#30F900"/>
<path d="M169.104 250.074L167.6 252.675L775.936 604.628L777.44 602.027L169.104 250.074Z" fill="#30F900"/>
<path d="M328.319 161.09L326.815 163.69L935.151 515.644L936.655 513.043L328.319 161.09Z" fill="#30F900"/>
<path d="M512.167 86.1885L510.663 88.7891L1088.59 423.147L1090.09 420.547L512.167 86.1885Z" fill="#30F900"/>
<path d="M396.216 342.105C395.572 342.105 394.929 341.944 394.339 341.622C392.408 340.603 391.228 338.081 390.959 334.755C390.584 329.658 392.676 324.347 395.733 322.63C397.074 321.879 398.523 321.826 399.756 322.523C401.687 323.542 402.867 326.064 403.136 329.39C403.511 334.487 401.419 339.798 398.362 341.515C397.664 341.891 396.913 342.105 396.216 342.105ZM397.182 325.259C395.411 326.225 393.641 330.302 393.963 334.487C394.124 336.955 394.982 338.511 395.733 338.886C395.948 338.994 396.27 339.101 396.86 338.779C398.63 337.813 400.4 333.736 400.078 329.551C399.917 327.083 399.059 325.527 398.308 325.152C398.093 325.045 397.772 324.991 397.182 325.259Z" fill="#00CCAE"/>
<path d="M402.975 338.296C402.331 338.296 401.687 338.135 401.097 337.813C399.166 336.794 397.932 334.272 397.718 330.946C397.342 325.849 399.434 320.538 402.492 318.821C403.833 318.07 405.281 318.016 406.515 318.714C408.446 319.733 409.626 322.255 409.894 325.581C410.27 330.678 408.178 335.989 405.12 337.706C404.423 338.082 403.726 338.296 402.975 338.296ZM404.637 321.289C404.476 321.289 404.262 321.343 403.994 321.504C402.224 322.469 400.453 326.547 400.775 330.731C400.936 333.199 401.794 334.755 402.545 335.131C402.76 335.238 403.135 335.345 403.672 335.023C405.442 334.058 407.212 329.98 406.89 325.796C406.729 323.328 405.871 321.772 405.12 321.396C404.959 321.343 404.852 321.289 404.637 321.289Z" fill="#00CCAE"/>
<path d="M409.787 334.487C409.143 334.487 408.499 334.326 407.909 334.004C405.978 332.985 404.798 330.463 404.53 327.137C404.155 322.04 406.247 316.729 409.304 315.012C410.645 314.261 412.093 314.207 413.327 314.905C415.258 315.924 416.438 318.446 416.706 321.772C417.082 326.869 414.99 332.18 411.932 333.897C411.235 334.272 410.484 334.487 409.787 334.487ZM411.45 317.48C411.289 317.48 411.074 317.534 410.806 317.695C409.036 318.66 407.266 322.738 407.588 326.922C407.749 329.39 408.607 330.946 409.358 331.322C409.572 331.429 409.894 331.536 410.484 331.214C412.254 330.249 414.024 326.171 413.703 321.987C413.542 319.519 412.683 317.963 411.932 317.587C411.772 317.534 411.611 317.48 411.45 317.48Z" fill="#00CCAE"/>
<path d="M416.546 330.678C415.902 330.678 415.258 330.517 414.668 330.195C412.737 329.176 411.503 326.654 411.289 323.328C410.913 318.231 413.005 312.92 416.063 311.203C417.404 310.452 418.852 310.398 420.086 311.096C422.017 312.115 423.197 314.637 423.465 317.963C423.841 323.06 421.749 328.371 418.691 330.088C417.994 330.517 417.297 330.678 416.546 330.678ZM418.208 313.671C418.048 313.671 417.833 313.725 417.565 313.886C415.795 314.851 414.025 318.929 414.346 323.113C414.507 325.581 415.366 327.137 416.117 327.513C416.331 327.62 416.653 327.727 417.243 327.405C419.013 326.44 420.783 322.362 420.461 318.178C420.3 315.71 419.442 314.154 418.691 313.778C418.53 313.725 418.423 313.671 418.208 313.671Z" fill="#00CCAE"/>
<path d="M423.358 326.922C422.714 326.922 422.071 326.761 421.48 326.439C419.549 325.42 418.316 322.898 418.101 319.572C417.726 314.475 419.818 309.164 422.875 307.447C424.216 306.696 425.664 306.642 426.898 307.34C428.829 308.359 430.009 310.881 430.277 314.207C430.653 319.304 428.561 324.615 425.503 326.332C424.806 326.708 424.055 326.922 423.358 326.922ZM425.021 309.861C424.86 309.861 424.645 309.915 424.377 310.076C422.607 311.042 420.837 315.119 421.159 319.304C421.32 321.772 422.178 323.328 422.929 323.703C423.143 323.81 423.465 323.918 424.055 323.596C425.825 322.63 427.595 318.553 427.274 314.368C427.113 311.9 426.254 310.344 425.503 309.969C425.343 309.915 425.182 309.861 425.021 309.861Z" fill="#00CCAE"/>
<path d="M430.116 323.113C429.473 323.113 428.829 322.952 428.239 322.63C426.308 321.611 425.074 319.089 424.86 315.763C424.484 310.666 426.576 305.355 429.634 303.638C430.975 302.887 432.423 302.833 433.657 303.531C435.588 304.55 436.821 307.072 437.036 310.398C437.411 315.495 435.32 320.806 432.262 322.523C431.565 322.898 430.867 323.113 430.116 323.113ZM431.779 306.106C431.618 306.106 431.404 306.16 431.136 306.321C429.365 307.286 427.595 311.364 427.917 315.548C428.078 318.016 428.936 319.572 429.687 319.948C429.902 320.055 430.224 320.162 430.814 319.84C432.584 318.875 434.354 314.797 434.032 310.613C433.871 308.145 433.013 306.589 432.262 306.213C432.101 306.16 431.994 306.106 431.779 306.106Z" fill="#00CCAE"/>
<path d="M436.929 319.304C436.285 319.304 435.641 319.143 435.051 318.821C433.12 317.802 431.887 315.28 431.672 311.954C431.296 306.857 433.388 301.546 436.446 299.829C437.787 299.078 439.235 299.024 440.469 299.722C442.4 300.741 443.634 303.263 443.848 306.589C444.224 311.686 442.132 316.997 439.074 318.714C438.377 319.089 437.626 319.304 436.929 319.304ZM438.592 302.297C438.431 302.297 438.216 302.351 437.948 302.511C436.178 303.477 434.408 307.555 434.729 311.739C434.89 314.207 435.749 315.763 436.5 316.139C436.714 316.246 437.036 316.353 437.626 316.031C439.396 315.066 441.166 310.988 440.844 306.803C440.684 304.336 439.825 302.78 439.074 302.404C438.913 302.351 438.752 302.297 438.592 302.297Z" fill="#00CCAE"/>
<path d="M443.687 315.495C443.044 315.495 442.4 315.334 441.81 315.012C439.879 313.993 438.645 311.471 438.431 308.145C438.055 303.048 440.147 297.737 443.205 296.02C444.546 295.269 445.994 295.215 447.228 295.913C449.159 296.932 450.392 299.454 450.607 302.78C450.982 307.877 448.891 313.188 445.833 314.905C445.136 315.334 444.438 315.495 443.687 315.495ZM445.35 298.488C445.189 298.488 444.975 298.541 444.707 298.702C442.936 299.668 441.166 303.746 441.488 307.93C441.649 310.398 442.507 311.954 443.258 312.33C443.473 312.437 443.795 312.544 444.385 312.222C446.155 311.257 447.925 307.179 447.603 302.994C447.442 300.527 446.584 298.971 445.833 298.595C445.672 298.541 445.565 298.488 445.35 298.488Z" fill="#00CCAE"/>
<path d="M287.917 426.014V371.827L397.343 308.627V362.814L287.917 426.014Z" fill="#E20505"/>
<path d="M287.917 371.827L162.829 299.614V353.801L287.917 426.014V371.827Z" fill="#FF3127"/>
<path d="M272.254 236.415L162.829 299.614L287.917 371.827L397.343 308.627L272.254 236.415Z" fill="#FF5548"/>
<path d="M162.829 317.694L287.917 389.907V426.014L162.829 353.801V317.694Z" fill="#393939"/>
<path d="M200.752 365.497L195.227 362.331V346.558L200.752 349.723V365.497Z" fill="#E8D0A7"/>
<path d="M189.059 358.736L183.534 355.571V339.798L189.059 342.963V358.736Z" fill="#E8D0A7"/>
<path d="M177.365 351.977L171.84 348.811V333.038L177.365 336.203V351.977Z" fill="#E8D0A7"/>
<path d="M229.771 184.428L226.821 183.784C228.001 178.311 226.821 166.669 226.821 166.562L229.825 166.24C229.879 166.723 231.059 178.472 229.771 184.428Z" fill="#00CCAE"/>
<path d="M219.15 189.846C213.089 189.846 208.476 187.378 208.476 184.106C208.476 180.833 213.035 178.365 219.15 178.365C225.265 178.365 229.825 180.833 229.825 184.106C229.825 187.378 225.212 189.846 219.15 189.846ZM219.15 181.423C214.43 181.423 211.534 183.194 211.534 184.159C211.534 185.125 214.43 186.896 219.15 186.896C223.871 186.896 226.767 185.125 226.767 184.159C226.767 183.14 223.871 181.423 219.15 181.423Z" fill="#00CCAE"/>
<path d="M219.15 196.124C213.089 196.124 208.476 193.656 208.476 190.383C208.476 187.11 213.035 184.643 219.15 184.643C225.265 184.643 229.825 187.11 229.825 190.383C229.825 193.656 225.212 196.124 219.15 196.124ZM219.15 187.647C214.43 187.647 211.534 189.417 211.534 190.383C211.534 191.349 214.43 193.119 219.15 193.119C223.871 193.119 226.767 191.349 226.767 190.383C226.767 189.417 223.871 187.647 219.15 187.647Z" fill="#00CCAE"/>
<path d="M219.15 202.401C213.089 202.401 208.476 199.933 208.476 196.66C208.476 193.387 213.035 190.919 219.15 190.919C225.265 190.919 229.825 193.387 229.825 196.66C229.825 199.933 225.212 202.401 219.15 202.401ZM219.15 193.924C214.43 193.924 211.534 195.694 211.534 196.66C211.534 197.626 214.43 199.396 219.15 199.396C223.871 199.396 226.767 197.626 226.767 196.66C226.767 195.694 223.871 193.924 219.15 193.924Z" fill="#00CCAE"/>
<path d="M219.15 208.624C213.089 208.624 208.476 206.156 208.476 202.883C208.476 199.61 213.035 197.143 219.15 197.143C225.265 197.143 229.825 199.61 229.825 202.883C229.825 206.156 225.212 208.624 219.15 208.624ZM219.15 200.201C214.43 200.201 211.534 201.971 211.534 202.937C211.534 203.902 214.43 205.673 219.15 205.673C223.871 205.673 226.767 203.902 226.767 202.937C226.767 201.971 223.871 200.201 219.15 200.201Z" fill="#00CCAE"/>
<path d="M219.15 214.901C213.089 214.901 208.476 212.433 208.476 209.16C208.476 205.888 213.035 203.42 219.15 203.42C225.265 203.42 229.825 205.888 229.825 209.16C229.825 212.433 225.212 214.901 219.15 214.901ZM219.15 206.478C214.43 206.478 211.534 208.248 211.534 209.214C211.534 210.18 214.43 211.95 219.15 211.95C223.871 211.95 226.767 210.18 226.767 209.214C226.767 208.195 223.871 206.478 219.15 206.478Z" fill="#00CCAE"/>
<path d="M219.15 221.178C213.089 221.178 208.476 218.71 208.476 215.437C208.476 212.165 213.035 209.697 219.15 209.697C225.265 209.697 229.825 212.165 229.825 215.437C229.825 218.71 225.212 221.178 219.15 221.178ZM219.15 212.701C214.43 212.701 211.534 214.472 211.534 215.437C211.534 216.403 214.43 218.174 219.15 218.174C223.871 218.174 226.767 216.403 226.767 215.437C226.767 214.472 223.871 212.701 219.15 212.701Z" fill="#00CCAE"/>
<path d="M219.15 227.455C213.089 227.455 208.476 224.987 208.476 221.715C208.476 218.442 213.035 215.974 219.15 215.974C225.265 215.974 229.825 218.442 229.825 221.715C229.825 224.987 225.212 227.455 219.15 227.455ZM219.15 218.979C214.43 218.979 211.534 220.749 211.534 221.715C211.534 222.68 214.43 224.451 219.15 224.451C223.871 224.451 226.767 222.68 226.767 221.715C226.767 220.749 223.871 218.979 219.15 218.979Z" fill="#00CCAE"/>
<path d="M219.15 233.678C213.089 233.678 208.476 231.21 208.476 227.938C208.476 224.665 213.035 222.197 219.15 222.197C225.265 222.197 229.825 224.665 229.825 227.938C229.825 231.21 225.212 233.678 219.15 233.678ZM219.15 225.255C214.43 225.255 211.534 227.026 211.534 227.991C211.534 228.957 214.43 230.728 219.15 230.728C223.871 230.728 226.767 228.957 226.767 227.991C226.767 227.026 223.871 225.255 219.15 225.255Z" fill="#00CCAE"/>
<path d="M241.036 146.175V182.282L281.588 160.607L241.036 146.175Z" fill="#00B596"/>
<path d="M241.036 128.095L209.763 164.202L241.036 182.282V128.095Z" fill="#6CFFF1"/>
<path d="M194.101 299.614L303.526 362.814V326.708L194.101 263.508V299.614Z" fill="#3BF4DE"/>
<path d="M303.526 326.708L350.461 245.481L397.342 218.388V308.627L303.526 362.814V326.708Z" fill="#00B596"/>
<path d="M241.005 182.242L194.096 263.502L303.538 326.702L350.446 245.442L241.005 182.242Z" fill="#6CFFF1"/>
<path d="M264.187 223.045L256.382 236.565L269.389 244.076L277.194 230.556L264.187 223.045Z" fill="#00DDC2"/>
<path d="M252.705 242.939L244.9 256.459L257.907 263.97L265.711 250.45L252.705 242.939Z" fill="#00DDC2"/>
<path d="M286.614 235.984L278.809 249.504L291.816 257.015L299.621 243.495L286.614 235.984Z" fill="#00DDC2"/>
<path d="M275.105 255.924L267.3 269.444L280.307 276.955L288.112 263.435L275.105 255.924Z" fill="#00DDC2"/>
<path d="M397.343 218.388L287.917 155.188L241.036 182.282L350.461 245.481L397.343 218.388Z" fill="#3BF4DE"/>
<path d="M272.254 182.282L287.917 191.295V173.269L272.254 164.202V182.282Z" fill="#6CFFF1"/>
<path d="M287.917 191.295L303.526 182.282V164.202L287.917 173.269V191.295Z" fill="#00B596"/>
<path d="M334.798 218.388L350.461 227.401V209.375L334.798 200.308V218.388Z" fill="#6CFFF1"/>
<path d="M350.461 227.401L366.07 218.388V200.308L350.461 209.375V227.401Z" fill="#00B596"/>
<path d="M241.036 128.095L397.343 218.388V236.415L241.036 146.175V128.095Z" fill="#6CFFF1"/>
<path d="M381.733 227.401L366.07 254.495L397.342 272.521V236.415L381.733 227.401Z" fill="#6CFFF1"/>
<path d="M397.343 272.521L428.615 254.495L412.952 209.321L397.343 218.388V272.521Z" fill="#00B596"/>
<path d="M412.952 209.321L256.645 119.082L241.036 128.095L397.343 218.388L412.952 209.321Z" fill="#97FFF2"/>
<path d="M585.619 508.527L584.117 505.899L604.876 493.935C606.592 492.915 607.665 491.145 607.665 489.16C607.665 487.175 606.646 485.351 604.876 484.385L584.922 472.904L571.082 480.898L569.581 478.269L584.922 469.417L606.378 481.756C609.06 483.312 610.669 486.048 610.669 489.16C610.669 492.271 609.06 495.008 606.378 496.563L585.619 508.527Z" fill="#393939"/>
<path d="M703.573 529.773C701.535 529.773 699.55 529.236 697.727 528.217L551.558 443.825C548.876 442.27 545.604 442.27 542.922 443.825L532.354 449.888L530.853 447.259L541.42 441.196C545.014 439.104 549.466 439.104 553.06 441.196L699.229 525.588C701.911 527.144 705.183 527.144 707.865 525.588L859.505 438.031C862.187 436.475 863.796 433.686 863.796 430.574C863.796 427.462 862.187 424.672 859.505 423.116L834.616 408.738L836.118 406.109L861.007 420.488C864.654 422.58 866.854 426.389 866.854 430.574C866.854 434.812 864.654 438.568 861.007 440.66L709.366 528.27C707.596 529.236 705.558 529.773 703.573 529.773Z" fill="#393939"/>
<path d="M319.189 426.014V444.04L491.105 543.346V525.32L319.189 426.014Z" fill="#32E200"/>
<path d="M412.952 371.827L319.189 426.014L491.105 525.32L584.922 471.133L412.952 371.827Z" fill="#30F900"/>
<path d="M491.105 509.01L347.404 426.014L412.952 388.137L556.653 471.133L491.105 509.01ZM353.519 426.014L491.105 505.523L550.592 471.133L412.952 391.624L353.519 426.014Z" fill="#229900"/>
<path d="M427.786 397.588L365.275 433.716L366.778 436.317L429.288 400.189L427.786 397.588Z" fill="#229900"/>
<path d="M443.417 406.661L380.907 442.79L382.41 445.391L444.92 409.263L443.417 406.661Z" fill="#229900"/>
<path d="M459.068 415.661L396.557 451.789L398.06 454.39L460.57 418.262L459.068 415.661Z" fill="#229900"/>
<path d="M474.672 424.689L412.162 460.817L413.665 463.418L476.175 427.29L474.672 424.689Z" fill="#229900"/>
<path d="M490.303 433.762L427.793 469.89L429.296 472.491L491.806 436.363L490.303 433.762Z" fill="#229900"/>
<path d="M505.954 442.763L443.444 478.891L444.947 481.492L507.457 445.364L505.954 442.763Z" fill="#229900"/>
<path d="M521.558 451.789L459.047 487.917L460.55 490.519L523.06 454.391L521.558 451.789Z" fill="#229900"/>
<path d="M537.209 460.79L474.698 496.918L476.201 499.519L538.712 463.391L537.209 460.79Z" fill="#229900"/>
<path d="M366.875 415.704L365.373 418.306L506.014 499.564L507.516 496.963L366.875 415.704Z" fill="#229900"/>
<path d="M382.512 406.628L381.01 409.229L521.667 490.472L523.169 487.87L382.512 406.628Z" fill="#229900"/>
<path d="M398.158 397.653L396.655 400.254L537.296 481.529L538.799 478.928L398.158 397.653Z" fill="#229900"/>
<path d="M491.105 543.346L584.922 489.213V471.133L491.105 525.32V543.346Z" fill="#229900"/>
<path d="M522.377 543.346V525.266L569.312 552.359C569.312 552.359 571.565 571.727 569.312 570.439C567.006 569.098 522.377 543.346 522.377 543.346Z" fill="#E8D0A7"/>
<path d="M522.377 525.266L584.922 489.16L631.803 516.253L569.312 552.359L522.377 525.266Z" fill="#FCE8BE"/>
<path d="M569.312 552.359V570.439L631.803 534.333V516.253L569.312 552.359Z" fill="#B2A372"/>
<path d="M592.753 493.666L577.09 502.733L608.362 520.759L624.025 511.746L592.753 493.666Z" fill="#B2A372"/>
<path d="M444.224 371.827V299.614L678.684 435.027V507.24L444.224 371.827Z" fill="white"/>
<path d="M678.684 433.31L666.133 426.014L661.573 423.385L447.764 299.883L444.385 297.951L442.722 298.595V372.739L677.182 508.152L678.684 509.01L680.186 508.152V434.169L678.684 433.31ZM677.182 504.611L445.779 370.969V302.243L495.504 331L661.573 426.926L663.129 427.784L677.182 435.939V504.611V504.611Z" fill="#393939"/>
<path d="M678.684 435.027V507.24L834.991 417V344.788L678.684 435.027Z" fill="white"/>
<path d="M834.991 343.017L831.987 344.788L678.684 433.31L677.933 433.739L677.182 434.168V508.098L678.684 508.957L680.186 508.098L835.742 418.288L836.493 417.859V343.876L834.991 343.017ZM833.489 416.088L680.186 504.611V435.885L833.489 347.363V416.088Z" fill="#393939"/>
<path d="M834.991 344.788L631.803 227.401L444.224 299.614L678.684 435.027L834.991 344.788Z" fill="white"/>
<path d="M834.991 343.017L820.884 334.862L661.573 242.853L632.554 226.114L631.964 225.738L444.438 297.951L442.776 298.595V300.526L445.779 302.243L495.504 331L661.573 426.926L663.129 427.784L677.182 435.885L678.684 436.744L680.186 435.885L833.489 347.363L836.493 345.592V343.822L834.991 343.017ZM678.684 433.31L666.133 426.014L661.573 423.385L447.764 299.883L631.696 229.065L661.627 246.34L819.382 337.491L831.934 344.788L678.684 433.31Z" fill="#393939"/>
<path d="M459.887 308.681V91.9888L663.075 209.375V426.014L459.887 308.681Z" fill="white"/>
<path d="M663.075 207.605L462.944 91.9888L459.887 90.272L458.385 91.1304V309.54L664.577 428.643V208.517L663.075 207.605ZM661.573 423.385L461.442 307.769V94.6176L661.573 210.233V423.385V423.385Z" fill="#393939"/>
<path d="M663.075 209.375L819.328 119.082L819.382 335.721L663.075 426.014V209.375Z" fill="white"/>
<path d="M664.577 210.233L817.827 121.711L817.88 334.862L664.631 423.438V210.233H664.577ZM820.884 119.94V118.17L819.382 117.312L817.88 118.17L816.325 119.028L663.075 207.604L662.324 208.034L661.573 208.463V426.872L663.129 427.73L666.133 425.96L819.436 337.437L820.187 337.008L820.938 336.579V334.809L820.884 119.94Z" fill="#393939"/>
<path d="M663.075 209.375L459.887 91.9888L616.194 1.6958L819.328 119.082L663.075 209.375Z" fill="white"/>
<path d="M644.194 216.51L631.696 209.321L483.381 124.179C481.933 123.32 480.323 123.267 478.929 123.696C476.783 124.393 475.12 126.378 475.12 128.954L475.174 132.441V145.317L475.228 154.598V170.908L475.281 180.243V196.553L475.335 205.834V222.251L475.389 231.532V244.301L475.442 247.842V269.999L475.496 273.54V278.422C475.496 279.388 475.764 280.354 476.247 281.212C476.73 282.017 477.427 282.768 478.285 283.251L631.91 371.988L639.151 376.173C640.922 377.192 642.853 377.085 644.408 376.28V216.51H644.194Z" fill="#393939"/>
<path d="M663.075 444.04V480.2L633.305 462.978L599.029 443.182L569.312 426.014V389.907L663.075 444.04Z" fill="#393939"/>
<path d="M459.887 362.814L456.883 361.097V343.017L459.887 344.788V362.814Z" fill="#393939"/>
<path d="M467.182 367.052L464.178 365.282V347.255L467.182 348.972V367.052Z" fill="#393939"/>
<path d="M474.477 371.237L471.473 369.52V351.44L474.477 353.21V371.237Z" fill="#393939"/>
<path d="M481.772 375.475L478.768 373.705V355.678L481.772 357.395V375.475Z" fill="#393939"/>
<path d="M488.96 379.607L485.956 377.89V359.863L488.96 361.58V379.607Z" fill="#393939"/>
<path d="M496.255 383.845L493.251 382.128V364.048L496.255 365.765V383.845Z" fill="#393939"/>
<path d="M663.075 460.35V463.891L633.305 446.669V464.749L599.029 444.952V426.872L569.312 409.704V406.217L602.086 425.155V443.182L630.247 459.491V441.465L663.075 460.35Z" fill="#C4C4C4"/>
<path d="M459.94 314.744L459.887 332.77L475.496 341.783V323.757L459.94 314.744Z" fill="#E5E5E5"/>
<path d="M508.967 187.486L497.596 180.94V167.903L508.967 174.449V187.486Z" fill="#6CFFF1"/>
<path d="M508.967 200.523L497.596 193.977V180.94L508.967 187.486V200.523Z" fill="#6CFFF1"/>
<path d="M588.408 233.357L577.036 226.758V213.721L588.408 220.32V233.357Z" fill="#6CFFF1"/>
<path d="M554.347 213.667L542.975 207.121V194.084L554.347 200.63V213.667Z" fill="#6CFFF1"/>
<path d="M588.408 246.393L577.036 239.794V226.757L588.408 233.356V246.393Z" fill="#6CFFF1"/>
<path d="M520.339 263.883L508.967 257.338V244.301L520.339 250.846V263.883Z" fill="#6CFFF1"/>
<path d="M531.603 283.251L520.232 276.706V263.669L531.603 270.214V283.251Z" fill="#6CFFF1"/>
<path d="M542.975 289.85L531.604 283.251V270.214L542.975 276.813V289.85Z" fill="#6CFFF1"/>
<path d="M554.347 296.395L542.975 289.85V276.813L554.347 283.358V296.395Z" fill="#6CFFF1"/>
<path d="M554.347 226.704L542.975 220.159V207.122L554.347 213.667V226.704Z" fill="#6CFFF1"/>
<path d="M554.347 239.741L542.975 233.196V220.159L554.347 226.704V239.741Z" fill="#6CFFF1"/>
<path d="M554.347 252.778L542.975 246.232V233.195L554.347 239.741V252.778Z" fill="#6CFFF1"/>
<path d="M554.347 265.547L542.975 258.948V245.911L554.347 252.51V265.547Z" fill="#6CFFF1"/>
<path d="M542.975 258.947L531.604 252.402V239.365L542.975 245.911V258.947Z" fill="#6CFFF1"/>
<path d="M565.718 302.941L554.347 296.395V283.358L565.718 289.904V302.941Z" fill="#6CFFF1"/>
<path d="M577.036 296.61L565.665 290.064V277.027L577.036 283.573V296.61Z" fill="#6CFFF1"/>
<path d="M644.194 354.713L475.228 257.177V260.664L644.194 358.2V354.713Z" fill="#727272"/>
<path d="M644.194 367.535L475.228 270L475.281 273.487L644.194 371.022V367.535Z" fill="#727272"/>
<path d="M644.194 303.477L475.174 205.888V209.375L644.194 307.018V303.477Z" fill="#727272"/>
<path d="M644.194 316.299L475.174 218.71V222.251L644.194 319.84V316.299Z" fill="#727272"/>
<path d="M644.194 329.122L475.228 231.532V235.019L644.194 332.609V329.122Z" fill="#727272"/>
<path d="M644.194 341.89L475.228 244.354V247.842L644.194 345.431V341.89Z" fill="#727272"/>
<path d="M644.194 252.295L475.12 154.652V158.139L644.194 255.782V252.295Z" fill="#727272"/>
<path d="M644.194 265.063L475.12 167.42V170.961L644.194 268.604V265.063Z" fill="#727272"/>
<path d="M644.194 277.886L475.174 180.296V183.784L644.194 281.373V277.886Z" fill="#727272"/>
<path d="M644.194 290.708L475.174 193.065V196.606L644.194 294.196V290.708Z" fill="#727272"/>
<path d="M644.194 226.65L475.067 129.007L475.121 132.495L644.194 230.191V226.65Z" fill="#727272"/>
<path d="M644.194 239.473L475.12 141.83V145.371L644.194 243.014V239.473Z" fill="#727272"/>
<path d="M647.412 220.695L647.198 374.027C647.198 375.797 646.071 377.192 644.623 377.729C643.55 378.104 642.37 378.104 641.244 377.46L631.642 371.934V209.375L645.428 217.262C646.071 217.637 646.554 218.12 646.876 218.71C647.251 219.3 647.412 219.998 647.412 220.695Z" fill="#E5E5E5"/>
<path d="M702.179 161.465L701.428 160.982L534.232 65.3246L630.891 9.31396L632.447 11.9428L540.293 65.3246L702.179 157.924L795.19 104.221L796.692 106.85L702.179 161.465Z" fill="#C4C4C4"/>
<path d="M819.382 117.312L616.194 -0.074707L459.887 90.2719L458.385 91.1303V92.9008L461.389 94.6712L661.519 210.287L663.021 211.145L664.523 210.287L817.773 121.764L819.275 120.906L820.777 120.048V118.17L819.382 117.312ZM663.075 207.604L462.944 91.9887L616.194 3.4662L816.324 119.082L663.075 207.604Z" fill="#393939"/>
</g>
<defs>
<clipPath id="clip0_2_30983">
<rect width="776" height="695" fill="white"/>
</clipPath>
</defs>
</svg>
