<svg width="556" height="524" viewBox="0 0 556 524" fill="none" xmlns="http://www.w3.org/2000/svg">
<path d="M374.342 454.005H372.355V446.35C372.355 442.56 369.301 439.506 365.51 439.506H26.0302C21.1726 439.506 17.1982 435.531 17.1982 430.674V419.928C17.1982 416.138 14.1438 413.083 10.3534 413.083H9.35983C4.50223 413.083 0.527832 409.109 0.527832 404.251C0.527832 399.394 4.50223 395.419 9.35983 395.419H85.131V397.406H9.35983C5.56943 397.406 2.51503 400.461 2.51503 404.251C2.51503 408.042 5.56943 411.096 9.35983 411.096H10.3534C15.211 411.096 19.1854 415.07 19.1854 419.928V430.674C19.1854 434.464 22.2398 437.518 26.0302 437.518H365.51C370.368 437.518 374.342 441.493 374.342 446.35V454.005Z" fill="#BABABA"/>
<path d="M473.518 455.219H273.216V523.226H473.518V455.219Z" fill="#BABABA"/>
<path d="M473.518 449.552H273.216V517.558H473.518V449.552Z" fill="#D1D1D1"/>
<path d="M291.248 459.525H282.857V467.915H291.248V459.525Z" fill="#999999"/>
<path d="M291.248 499.195H282.857V507.585H291.248V499.195Z" fill="#999999"/>
<path d="M299.624 493.407V485.016H282.843V493.407H299.624Z" fill="#999999"/>
<path d="M406.863 493.402V485.011H385.188V493.402H406.863Z" fill="#999999"/>
<path d="M406.851 493.414V485.024H390.07V493.414H406.851Z" fill="#999999"/>
<path d="M406.854 479.249V470.859H390.073V479.249H406.854Z" fill="#999999"/>
<path d="M369.742 459.525H361.352V467.915H369.742V459.525Z" fill="#999999"/>
<path d="M385.198 459.525H376.808V467.915H385.198V459.525Z" fill="#999999"/>
<path d="M463.693 459.525H424.022V467.915H463.693V459.525Z" fill="#E8E8E8"/>
<path d="M385.161 499.195H331.912V507.585H385.161V499.195Z" fill="#E8E8E8"/>
<path d="M310.163 459.525H301.772V467.915H310.163V459.525Z" fill="#E8E8E8"/>
<path d="M325.251 459.525H316.861V467.915H325.251V459.525Z" fill="#E8E8E8"/>
<path d="M325.251 485.027H316.861V493.417H325.251V485.027Z" fill="#E8E8E8"/>
<path d="M340.302 473.914H331.912V482.304H340.302V473.914Z" fill="#E8E8E8"/>
<path d="M354.323 473.914H345.933V482.304H354.323V473.914Z" fill="#E8E8E8"/>
<path d="M310.163 473.914H301.772V482.304H310.163V473.914Z" fill="#E8E8E8"/>
<path d="M340.302 485.027H331.912V493.417H340.302V485.027Z" fill="#E8E8E8"/>
<path d="M325.251 499.195H316.861V507.585H325.251V499.195Z" fill="#999999"/>
<path d="M422.219 499.195H413.829V507.585H422.219V499.195Z" fill="#999999"/>
<path d="M433.848 499.195H425.458V507.585H433.848V499.195Z" fill="#999999"/>
<path d="M433.848 485.027H425.458V493.417H433.848V485.027Z" fill="#999999"/>
<path d="M445.513 499.195H437.123V507.585H445.513V499.195Z" fill="#999999"/>
<path d="M463.693 490.805H455.302V507.585H463.693V490.805Z" fill="#999999"/>
<path d="M340.302 459.525H331.912V467.915H340.302V459.525Z" fill="#E8E8E8"/>
<path d="M555.729 231.843H511.643V243.546H555.729V231.843Z" fill="#00FFC0"/>
<path d="M64.4126 312.803H10.979V337.165H64.4126V312.803Z" fill="#00FFC0"/>
<path d="M61.8364 201.115H17.75V203.507H61.8364V201.115Z" fill="#00FFC0"/>
<path d="M529.197 23.592H448.089V25.984H529.197V23.592Z" fill="#00FFC0"/>
<path d="M451.107 0.849609H407.021V3.24161H451.107V0.849609Z" fill="#00FFC0"/>
<path d="M66.5471 209.064H42.4062V211.456H66.5471V209.064Z" fill="#00FFC0"/>
<path d="M398.557 208.88H224.309V11.9999C224.309 10.4911 224.861 9.12954 225.817 8.09914C226.885 6.92154 228.43 6.18555 230.16 6.18555H392.742C394.361 6.18555 395.797 6.84794 396.864 7.87834C397.931 8.94554 398.557 10.3807 398.557 11.9999V208.88Z" fill="#4C5B72"/>
<path d="M398.557 198.355H224.309V208.88H398.557V198.355Z" fill="#333E4F"/>
<path d="M376.44 140.138H246.425C243.886 140.138 241.715 138.592 240.795 136.421C240.464 135.685 240.316 134.875 240.316 133.992V30.9152C240.316 28.8912 241.31 27.088 242.819 25.984C243.849 25.248 245.1 24.8064 246.462 24.8064H376.44C378.132 24.8064 379.678 25.5056 380.782 26.6096C381.886 27.7136 382.585 29.2592 382.585 30.952V134.066C382.585 134.912 382.401 135.722 382.107 136.458C381.15 138.592 378.979 140.138 376.44 140.138Z" fill="#333E4F"/>
<path d="M370.846 135.611H252.019C249.701 135.611 247.677 134.323 246.646 132.446C246.168 131.563 245.874 130.569 245.874 129.502V35.4415C245.874 33.7487 246.573 32.2031 247.677 31.0991C248.781 29.9951 250.326 29.2959 252.019 29.2959H370.846C373.165 29.2959 375.152 30.5839 376.219 32.4607C376.698 33.3439 376.992 34.3375 376.992 35.4415V129.465C376.992 131.158 376.293 132.704 375.189 133.808C374.085 134.912 372.539 135.611 370.846 135.611Z" fill="#32312E"/>
<path d="M367.497 133.514C329.777 136.31 293.088 136.31 255.368 133.514C251.982 133.182 248.78 130.165 248.302 126.779C245.174 96.5296 245.174 68.4144 248.302 38.1648C248.78 34.7792 251.982 31.7248 255.368 31.4304C293.088 28.6336 329.777 28.6336 367.497 31.4304C370.883 31.7616 374.084 34.7792 374.563 38.1648C377.691 68.4144 377.691 96.5296 374.563 126.779C374.084 130.165 370.883 133.182 367.497 133.514Z" fill="#00FFC0"/>
<path d="M281.496 77.5039H271.56V87.4399H281.496V77.5039Z" fill="#FF1B5D"/>
<path d="M351.306 77.5039H341.37V87.4399H351.306V77.5039Z" fill="#FF1B5D"/>
<path d="M291.395 87.4031H281.459V97.3391H291.395V87.4031Z" fill="#FF1B5D"/>
<path d="M291.395 67.5679H281.459V77.5039H291.395V67.5679Z" fill="#FF1B5D"/>
<path d="M331.471 97.2287H291.8V107.128H331.471V97.3391H341.37V87.4031H331.471V97.2287Z" fill="#FF1B5D"/>
<path d="M331.471 67.5679V57.8159H291.8V67.7151H301.516V77.5039V87.4031H311.415H321.351V77.5039V67.7151H331.471V77.5039H341.37V67.5679H331.471Z" fill="#FF1B5D"/>
<path d="M379.715 150.736H246.646V166.118H379.715V150.736Z" fill="#59687C"/>
<path d="M332.537 150.736H330.55V166.118H332.537V150.736Z" fill="#4C5B72"/>
<path d="M266.665 201.814H244.99V182.31H266.665V201.814ZM246.977 199.827H264.678V184.298H246.977V199.827Z" fill="#333E4F"/>
<path d="M321.203 178.52H295.811V185.144H321.203V178.52Z" fill="#333E4F"/>
<path d="M309.5 178.52H307.513V186.616H309.5V178.52Z" fill="#4C5B72"/>
<path d="M353.182 178.52H327.79V185.144H353.182V178.52Z" fill="#333E4F"/>
<path d="M341.48 178.52H339.493V186.616H341.48V178.52Z" fill="#4C5B72"/>
<path d="M364.406 184.85C366.073 184.85 367.424 183.499 367.424 181.832C367.424 180.165 366.073 178.814 364.406 178.814C362.74 178.814 361.389 180.165 361.389 181.832C361.389 183.499 362.74 184.85 364.406 184.85Z" fill="#333E4F"/>
<path d="M374.526 195.448C372.318 195.448 370.515 193.645 370.515 191.437C370.515 189.229 372.318 187.426 374.526 187.426C376.734 187.426 378.538 189.229 378.538 191.437C378.538 193.645 376.734 195.448 374.526 195.448ZM374.526 189.376C373.386 189.376 372.502 190.296 372.502 191.4C372.502 192.541 373.422 193.461 374.526 193.461C375.667 193.461 376.55 192.541 376.55 191.4C376.55 190.296 375.63 189.376 374.526 189.376Z" fill="#C1BDB4"/>
<path d="M385.603 195.448C383.395 195.448 381.592 193.645 381.592 191.437C381.592 189.229 383.395 187.426 385.603 187.426C387.811 187.426 389.614 189.229 389.614 191.437C389.614 193.645 387.811 195.448 385.603 195.448ZM385.603 189.376C384.462 189.376 383.579 190.296 383.579 191.4C383.579 192.541 384.499 193.461 385.603 193.461C386.744 193.461 387.627 192.541 387.627 191.4C387.627 190.296 386.707 189.376 385.603 189.376Z" fill="#C1BDB4"/>
<path d="M221.991 231.218H52.1953V429.901H221.991V231.218Z" fill="#585756"/>
<path d="M210.803 247.814H63.3823V361.158H210.803V247.814Z" fill="#3A3938"/>
<path d="M200.499 255.763H73.6128V353.32H200.499V255.763Z" fill="#7F9BFF"/>
<path d="M221.991 389.126H52.1953V391.114H221.991V389.126Z" fill="#32312E"/>
<path d="M63.3823 247.814L73.6495 255.726H200.536L210.803 247.814H63.3823Z" fill="#32312E"/>
<path d="M63.3823 361.158L73.6495 353.283H200.536L210.803 361.158H63.3823Z" fill="#7783A5"/>
<path d="M151.629 375.878H131.131V377.866H151.629V375.878Z" fill="#3A3938"/>
<path d="M106.328 236.038H92.4175V241.338H106.328V236.038Z" fill="#C1BDB4"/>
<path d="M69.4913 399.541H63.8608V405.171H69.4913V399.541Z" fill="#C1BDB4"/>
<path d="M69.4913 410.102H63.8608V415.733H69.4913V410.102Z" fill="#C1BDB4"/>
<path d="M79.2803 399.541H73.6499V405.171H79.2803V399.541Z" fill="#C1BDB4"/>
<path d="M79.2803 410.102H73.6499V415.733H79.2803V410.102Z" fill="#C1BDB4"/>
<path d="M89.6577 399.541H84.0273V405.171H89.6577V399.541Z" fill="#C1BDB4"/>
<path d="M89.6577 410.102H84.0273V415.733H89.6577V410.102Z" fill="#C1BDB4"/>
<path d="M214.41 402.669H204.511V412.568H214.41V402.669Z" fill="#C1BDB4"/>
<path d="M124.949 407.011C124.949 409.624 117.552 411.722 120.239 411.722C119.392 411.722 120.239 413.304 119.54 412.899C118.141 412.09 115.528 408.741 115.528 407.011C115.528 404.398 117.626 402.301 120.239 402.301C122.005 402.301 125.575 405.318 126.384 406.754C126.789 407.453 124.949 406.165 124.949 407.011Z" fill="#3A3938"/>
<path d="M122.263 413.745C124.864 413.745 126.973 411.637 126.973 409.035C126.973 406.434 124.864 404.325 122.263 404.325C119.661 404.325 117.552 406.434 117.552 409.035C117.552 411.637 119.661 413.745 122.263 413.745Z" fill="#32312E"/>
<path d="M143.349 407.011C143.349 409.624 135.952 411.722 138.639 411.722C137.792 411.722 138.639 413.304 137.939 412.899C136.541 412.09 133.928 408.741 133.928 407.011C133.928 404.398 136.026 402.301 138.639 402.301C140.405 402.301 143.975 405.318 144.784 406.754C145.152 407.453 143.349 406.165 143.349 407.011Z" fill="#3A3938"/>
<path d="M140.663 413.745C143.264 413.745 145.373 411.637 145.373 409.035C145.373 406.434 143.264 404.325 140.663 404.325C138.061 404.325 135.952 406.434 135.952 409.035C135.952 411.637 138.061 413.745 140.663 413.745Z" fill="#32312E"/>
<path d="M161.749 407.011C161.749 409.624 154.352 411.722 157.039 411.722C156.192 411.722 157.039 413.304 156.339 412.899C154.941 412.09 152.328 408.741 152.328 407.011C152.328 404.398 154.426 402.301 157.039 402.301C158.805 402.301 162.375 405.318 163.184 406.754C163.552 407.453 161.749 406.165 161.749 407.011Z" fill="#3A3938"/>
<path d="M159.062 413.745C161.664 413.745 163.773 411.637 163.773 409.035C163.773 406.434 161.664 404.325 159.062 404.325C156.461 404.325 154.352 406.434 154.352 409.035C154.352 411.637 156.461 413.745 159.062 413.745Z" fill="#32312E"/>
<path d="M180.112 407.011C180.112 409.624 172.715 411.722 175.402 411.722C174.555 411.722 175.402 413.304 174.703 412.899C173.304 412.09 170.691 408.741 170.691 407.011C170.691 404.398 172.789 402.301 175.402 402.301C177.168 402.301 180.738 405.318 181.547 406.754C181.952 407.453 180.112 406.165 180.112 407.011Z" fill="#3A3938"/>
<path d="M177.426 413.745C180.027 413.745 182.136 411.637 182.136 409.035C182.136 406.434 180.027 404.325 177.426 404.325C174.824 404.325 172.715 406.434 172.715 409.035C172.715 411.637 174.824 413.745 177.426 413.745Z" fill="#32312E"/>
<path d="M198.512 407.011C198.512 409.624 191.115 411.722 193.802 411.722C192.955 411.722 193.802 413.304 193.102 412.899C191.704 412.09 189.091 408.741 189.091 407.011C189.091 404.398 191.189 402.301 193.802 402.301C195.568 402.301 199.138 405.318 199.947 406.754C200.315 407.453 198.512 406.165 198.512 407.011Z" fill="#3A3938"/>
<path d="M195.826 413.745C198.427 413.745 200.536 411.637 200.536 409.035C200.536 406.434 198.427 404.325 195.826 404.325C193.224 404.325 191.115 406.434 191.115 409.035C191.115 411.637 193.224 413.745 195.826 413.745Z" fill="#32312E"/>
<path d="M104.194 401.344H98.2319V404.325H104.194V401.344Z" fill="#32312E"/>
<path d="M104.194 406.128H98.2319V409.109H104.194V406.128Z" fill="#32312E"/>
<path d="M108.426 290.208H102.317V296.317H108.426V290.208Z" fill="#CAFFF1"/>
<path d="M102.317 284.099H96.208V290.208H102.317V284.099Z" fill="#CAFFF1"/>
<path d="M114.535 296.28H108.426V302.389H114.535V296.28Z" fill="#CAFFF1"/>
<path d="M120.606 302.389H114.498V308.497H120.606V302.389Z" fill="#CAFFF1"/>
<path d="M102.317 308.498H96.208V314.606H102.317V308.498Z" fill="#CAFFF1"/>
<path d="M96.245 314.57H90.1362V320.678H96.245V314.57Z" fill="#CAFFF1"/>
<path d="M181.586 320.695V314.586H175.477V320.695H181.586Z" fill="#CAFFF1"/>
<path d="M175.464 314.586V308.477H169.356V314.586H175.464Z" fill="#CAFFF1"/>
<path d="M126.715 302.389H120.606V308.497H126.715V302.389Z" fill="#CAFFF1"/>
<path d="M138.896 302.389H132.787V308.497H138.896V302.389Z" fill="#CAFFF1"/>
<path d="M132.824 302.389H126.715V308.497H132.824V302.389Z" fill="#CAFFF1"/>
<path d="M145.005 302.389H138.896V308.497H145.005V302.389Z" fill="#CAFFF1"/>
<path d="M138.896 326.787H132.787V332.896H138.896V326.787Z" fill="#CAFFF1"/>
<path d="M138.896 320.678H132.787V326.787H138.896V320.678Z" fill="#CAFFF1"/>
<path d="M151.114 302.389H145.005V308.497H151.114V302.389Z" fill="#CAFFF1"/>
<path d="M157.185 302.389H151.077V308.497H157.185V302.389Z" fill="#CAFFF1"/>
<path d="M163.294 296.28H157.186V302.389H163.294V296.28Z" fill="#CAFFF1"/>
<path d="M169.403 290.208H163.294V296.317H169.403V290.208Z" fill="#CAFFF1"/>
<path d="M175.476 284.099H169.367V290.208H175.476V284.099Z" fill="#CAFFF1"/>
<path d="M76.4463 99.1056V201.336C76.4463 208.144 78.0655 214.842 81.1199 220.914L83.8431 226.286C85.3887 229.304 88.4799 231.218 91.8655 231.218H198.953C202.339 231.218 205.467 229.304 206.976 226.286L209.699 220.914C212.79 214.842 214.373 208.144 214.373 201.336V99.1056C214.373 94.1376 210.325 90.0896 205.357 90.0896H85.3887C80.4943 90.0896 76.4463 94.1008 76.4463 99.1056Z" fill="#BABABA"/>
<path d="M203.811 103.338H87.0449V196.221H203.811V103.338Z" fill="#E8E8E8"/>
<path d="M87.0449 196.221L133.707 149.558L87.0449 103.338V196.221Z" fill="#D1D1D1"/>
<path d="M203.811 103.117L157.186 149.779L203.811 196.221V103.117Z" fill="#D1D1D1"/>
<path d="M192.33 190.774H98.5633C97.6065 190.774 96.7233 190.48 95.9873 190.002C94.7361 189.155 93.8896 187.72 93.8896 186.101V113.458C93.8896 112.17 94.4049 110.992 95.2513 110.146C96.0977 109.299 97.2753 108.784 98.5633 108.784H192.33C193.47 108.784 194.538 109.189 195.347 109.888C196.341 110.734 196.966 112.022 196.966 113.421V186.101C196.966 186.763 196.819 187.352 196.598 187.904C195.936 189.634 194.243 190.774 192.33 190.774Z" fill="#3A3938"/>
<path d="M197.629 219.699H180.185C178.603 219.699 177.315 218.411 177.315 216.829V213.001C177.315 211.419 178.603 210.131 180.185 210.131H197.629C199.211 210.131 200.499 211.419 200.499 213.001V216.792C200.536 218.374 199.248 219.699 197.629 219.699Z" fill="#585756"/>
<path d="M191.704 210.094H189.717V222.018H191.704V210.094Z" fill="#BABABA"/>
<path d="M150.488 211.015C151.992 211.015 153.211 209.795 153.211 208.291C153.211 206.787 151.992 205.568 150.488 205.568C148.984 205.568 147.765 206.787 147.765 208.291C147.765 209.795 148.984 211.015 150.488 211.015Z" fill="#E8E8E8"/>
<path d="M141.73 219.773C143.234 219.773 144.453 218.554 144.453 217.05C144.453 215.546 143.234 214.326 141.73 214.326C140.226 214.326 139.006 215.546 139.006 217.05C139.006 218.554 140.226 219.773 141.73 219.773Z" fill="#E8E8E8"/>
<path d="M166.422 211.015C167.926 211.015 169.146 209.795 169.146 208.291C169.146 206.787 167.926 205.568 166.422 205.568C164.918 205.568 163.699 206.787 163.699 208.291C163.699 209.795 164.918 211.015 166.422 211.015Z" fill="#E8E8E8"/>
<path d="M157.664 219.773C159.168 219.773 160.387 218.554 160.387 217.05C160.387 215.546 159.168 214.326 157.664 214.326C156.16 214.326 154.941 215.546 154.941 217.05C154.941 218.554 156.16 219.773 157.664 219.773Z" fill="#E8E8E8"/>
<path d="M92.7117 219.736C94.7441 219.736 96.3917 218.088 96.3917 216.056C96.3917 214.024 94.7441 212.376 92.7117 212.376C90.6793 212.376 89.0317 214.024 89.0317 216.056C89.0317 218.088 90.6793 219.736 92.7117 219.736Z" fill="#3A3938"/>
<path d="M92.7117 220.73C90.1357 220.73 88.0381 218.632 88.0381 216.056C88.0381 213.48 90.1357 211.382 92.7117 211.382C95.2877 211.382 97.3853 213.48 97.3853 216.056C97.3853 218.632 95.2877 220.73 92.7117 220.73ZM92.7117 213.37C91.2397 213.37 90.0253 214.584 90.0253 216.056C90.0253 217.528 91.2397 218.742 92.7117 218.742C94.1837 218.742 95.3981 217.528 95.3981 216.056C95.3981 214.584 94.1837 213.37 92.7117 213.37Z" fill="#585756"/>
<path d="M141.656 118.499H138.933V121.222H141.656V118.499Z" fill="#00FFC0"/>
<path d="M141.656 121.222H138.933V123.946H141.656V121.222Z" fill="#00FFC0"/>
<path d="M141.656 123.982H138.933V126.706H141.656V123.982Z" fill="#00FFC0"/>
<path d="M147.25 118.499H144.526V121.222H147.25V118.499Z" fill="#00FFC0"/>
<path d="M147.25 121.222H144.526V123.946H147.25V121.222Z" fill="#00FFC0"/>
<path d="M147.25 123.982H144.526V126.706H147.25V123.982Z" fill="#00FFC0"/>
<path d="M144.379 126.742H141.656V129.466H144.379V126.742Z" fill="#00FFC0"/>
<path d="M162.522 118.499H159.798V121.222H162.522V118.499Z" fill="#00FFC0"/>
<path d="M174.077 118.499H171.354V121.222H174.077V118.499Z" fill="#00FFC0"/>
<path d="M165.245 121.222H162.521V123.946H165.245V121.222Z" fill="#00FFC0"/>
<path d="M176.8 118.499H174.077V121.222H176.8V118.499Z" fill="#00FFC0"/>
<path d="M174.077 126.706H171.354V129.429H174.077V126.706Z" fill="#00FFC0"/>
<path d="M176.8 126.706H174.077V129.429H176.8V126.706Z" fill="#00FFC0"/>
<path d="M174.077 122.621H171.354V125.344H174.077V122.621Z" fill="#00FFC0"/>
<path d="M176.8 122.621H174.077V125.344H176.8V122.621Z" fill="#00FFC0"/>
<path d="M165.245 123.982H162.521V126.706H165.245V123.982Z" fill="#00FFC0"/>
<path d="M162.522 126.706H159.798V129.429H162.522V126.706Z" fill="#00FFC0"/>
<path d="M153.579 118.499H150.856V129.466H153.579V118.499Z" fill="#00FFC0"/>
<path d="M171.316 118.499H168.593V129.466H171.316V118.499Z" fill="#00FFC0"/>
<path d="M159.761 118.499H157.038V129.466H159.761V118.499Z" fill="#00FFC0"/>
<path d="M186.147 118.499H183.424V121.222H186.147V118.499Z" fill="#00FFC0"/>
<path d="M186.147 126.706H183.424V129.429H186.147V126.706Z" fill="#00FFC0"/>
<path d="M183.387 118.499H180.664V129.466H183.387V118.499Z" fill="#00FFC0"/>
<path d="M188.87 118.499H186.147V129.466H188.87V118.499Z" fill="#00FFC0"/>
<path d="M519.15 198.355H407.573C402.605 198.355 398.557 194.307 398.557 189.339V67.752C398.557 58.2576 406.248 50.5664 415.742 50.5664H510.944C520.438 50.5664 528.129 58.2576 528.129 67.752V189.302C528.166 194.307 524.118 198.355 519.15 198.355Z" fill="#3A3938"/>
<path d="M519.702 198.355H407.058V208.88H519.702V198.355Z" fill="#4C5B72"/>
<path d="M503.731 145.621H422.992C416.883 145.621 411.952 140.69 411.952 134.581V74.4128C411.952 68.304 416.883 63.3728 422.992 63.3728H503.731C509.84 63.3728 514.771 68.304 514.771 74.4128V134.581C514.771 140.69 509.803 145.621 503.731 145.621Z" fill="#585756"/>
<path d="M503.731 146.614H422.992C416.368 146.614 410.958 141.205 410.958 134.581V74.4128C410.958 67.7888 416.368 62.3792 422.992 62.3792H503.731C510.355 62.3792 515.765 67.7888 515.765 74.4128V134.581C515.765 141.205 510.355 146.614 503.731 146.614ZM422.992 64.3663C417.472 64.3663 412.946 68.856 412.946 74.4128V134.581C412.946 140.101 417.435 144.627 422.992 144.627H503.731C509.251 144.627 513.778 140.138 513.778 134.581V74.4128C513.778 68.8928 509.288 64.3663 503.731 64.3663H422.992Z" fill="#C1BDB4"/>
<path d="M426.341 186.616C430.812 186.616 434.437 182.991 434.437 178.52C434.437 174.049 430.812 170.424 426.341 170.424C421.869 170.424 418.245 174.049 418.245 178.52C418.245 182.991 421.869 186.616 426.341 186.616Z" fill="#585756"/>
<path d="M426.341 184.298C429.531 184.298 432.118 181.711 432.118 178.52C432.118 175.329 429.531 172.742 426.341 172.742C423.15 172.742 420.563 175.329 420.563 178.52C420.563 181.711 423.15 184.298 426.341 184.298Z" fill="#C1BDB4"/>
<path d="M456.664 189.376C462.66 189.376 467.52 184.516 467.52 178.52C467.52 172.524 462.66 167.664 456.664 167.664C450.669 167.664 445.808 172.524 445.808 178.52C445.808 184.516 450.669 189.376 456.664 189.376Z" fill="#585756"/>
<path d="M456.664 184.298C459.855 184.298 462.441 181.711 462.441 178.52C462.441 175.329 459.855 172.742 456.664 172.742C453.473 172.742 450.886 175.329 450.886 178.52C450.886 181.711 453.473 184.298 456.664 184.298Z" fill="#C1BDB4"/>
<path d="M514.771 170.424H481.394V175.061H514.771V170.424Z" fill="#C1BDB4"/>
<path d="M494.862 135.611H434.436C428.328 135.611 423.396 130.68 423.396 124.571V80.9631C423.396 74.8543 428.328 69.9231 434.436 69.9231H494.862C500.971 69.9231 505.902 74.8543 505.902 80.9631V124.571C505.902 130.68 500.971 135.611 494.862 135.611Z" fill="#3A3938"/>
<path d="M492.249 136.458H434.436C431.713 136.458 429.211 135.464 427.297 133.845C424.905 131.821 423.396 128.803 423.396 125.454V83.576C423.396 80.7056 424.5 78.0927 426.304 76.1423C428.328 73.9343 431.235 72.5728 434.436 72.5728H492.249C495.304 72.5728 498.064 73.8239 500.051 75.8111C502.038 77.7983 503.289 80.5584 503.289 83.6128V125.454C503.289 128.803 501.78 131.821 499.425 133.845C497.475 135.464 495.009 136.458 492.249 136.458Z" fill="#009292"/>
<path d="M463.645 170.143L455.969 177.82L457.374 179.225L465.05 171.548L463.645 170.143Z" fill="#C1BDB4"/>
<path d="M426.341 177.526H418.245V179.514H426.341V177.526Z" fill="#C1BDB4"/>
<path d="M514.771 162.88H481.394V164.867H514.771V162.88Z" fill="#585756"/>
<path d="M514.771 180.139H481.394V182.126H514.771V180.139Z" fill="#585756"/>
<path d="M514.771 187.389H481.394V189.376H514.771V187.389Z" fill="#585756"/>
<path d="M528.166 154.858H398.557V156.845H528.166V154.858Z" fill="#C1BDB4"/>
<path d="M431.346 87.4033H423.25V89.9793H431.346V87.4033Z" fill="#00FFC0"/>
<path d="M439.773 89.9792H431.677V92.5552H439.773V89.9792Z" fill="#00FFC0"/>
<path d="M446.764 89.9792H438.668V92.5552H446.764V89.9792Z" fill="#00FFC0"/>
<path d="M479.185 87.4033H471.089V89.9793H479.185V87.4033Z" fill="#00FFC0"/>
<path d="M454.861 87.4033H446.765V89.9793H454.861V87.4033Z" fill="#00FFC0"/>
<path d="M462.957 84.8271H454.861V87.4032H462.957V84.8271Z" fill="#00FFC0"/>
<path d="M487.282 82.4719H479.186V87.4399H487.282V82.4719Z" fill="#00FFC0"/>
<path d="M495.377 84.8271H487.281V87.4032H495.377V84.8271Z" fill="#00FFC0"/>
<path d="M495.377 87.4033H487.281V89.9793H495.377V87.4033Z" fill="#00FFC0"/>
<path d="M503.473 87.4033H495.377V89.9793H503.473V87.4033Z" fill="#00FFC0"/>
<path d="M471.053 87.4033H462.957V89.9793H471.053V87.4033Z" fill="#00FFC0"/>
<path d="M439.773 92.3713H431.677V94.9473H439.773V92.3713Z" fill="#00FFC0"/>
<path d="M431.346 112.501H423.25V115.077H431.346V112.501Z" fill="#00FFC0"/>
<path d="M431.346 109.925H423.25V112.501H431.346V109.925Z" fill="#00FFC0"/>
<path d="M439.773 115.077H431.677V117.653H439.773V115.077Z" fill="#00FFC0"/>
<path d="M446.764 115.077H438.668V117.653H446.764V115.077Z" fill="#00FFC0"/>
<path d="M479.185 112.501H471.089V115.077H479.185V112.501Z" fill="#00FFC0"/>
<path d="M454.861 112.501H446.765V115.077H454.861V112.501Z" fill="#00FFC0"/>
<path d="M462.957 109.925H454.861V112.501H462.957V109.925Z" fill="#00FFC0"/>
<path d="M487.282 109.925H479.186V112.501H487.282V109.925Z" fill="#00FFC0"/>
<path d="M479.185 107.533H471.089V110.109H479.185V107.533Z" fill="#00FFC0"/>
<path d="M495.377 112.501H487.281V115.077H495.377V112.501Z" fill="#00FFC0"/>
<path d="M495.377 115.077H487.281V117.653H495.377V115.077Z" fill="#00FFC0"/>
<path d="M503.473 109.925H495.377V112.501H503.473V109.925Z" fill="#00FFC0"/>
<path d="M471.053 112.501H462.957V115.077H471.053V112.501Z" fill="#00FFC0"/>
<path d="M471.053 115.077H462.957V117.653H471.053V115.077Z" fill="#00FFC0"/>
<path d="M523.713 208.88H221.291V421.105H523.713V208.88Z" fill="#3A3938"/>
<path d="M421.594 398.105C368.712 401.417 316.567 401.417 263.685 398.105C251.578 397.222 240.391 386.44 239.176 374.333C235.754 332.16 235.754 290.981 239.176 248.771C240.391 236.664 251.541 225.881 263.685 224.998C316.567 221.686 368.712 221.686 421.594 224.998C433.701 225.881 444.888 236.664 446.103 248.771C449.525 290.981 449.525 332.16 446.103 374.333C444.888 386.44 433.701 397.185 421.594 398.105Z" fill="#7F4FFF"/>
<path d="M342.658 401.565C316.419 401.565 290.218 400.718 263.648 399.062C251.099 398.142 239.47 386.845 238.219 374.369C234.797 332.049 234.797 290.944 238.219 248.624C239.47 236.149 251.099 224.851 263.611 223.931C316.787 220.619 368.491 220.619 421.667 223.931C434.216 224.851 445.845 236.149 447.096 248.624C450.518 290.944 450.518 332.086 447.096 374.369C445.845 386.845 434.216 398.142 421.704 399.062C395.098 400.755 368.859 401.565 342.658 401.565ZM342.658 223.489C316.493 223.489 290.291 224.299 263.758 225.955C252.13 226.801 241.347 237.289 240.206 248.845C236.784 291.017 236.784 332.049 240.206 374.222C241.347 385.741 252.166 396.229 263.795 397.112C316.861 400.424 368.491 400.424 421.557 397.112C433.186 396.229 443.968 385.777 445.146 374.222C448.568 332.049 448.568 291.017 445.146 248.845C444.005 237.326 433.186 226.838 421.557 225.955C394.987 224.299 368.822 223.489 342.658 223.489Z" fill="#BABABA"/>
<path d="M342.658 406.79C315.646 406.79 288.635 405.833 261.219 403.883C247.125 402.742 233.95 389.973 232.405 375.989C228.541 332.601 228.541 290.429 232.405 247.078C233.95 233.094 247.125 220.325 261.182 219.184C315.978 215.32 369.264 215.32 424.059 219.184C438.154 220.325 451.328 233.094 452.874 247.078C456.738 290.465 456.738 332.638 452.874 375.989C451.328 389.973 438.154 402.742 424.096 403.883C396.68 405.797 369.669 406.79 342.658 406.79ZM342.658 218.264C315.683 218.264 288.709 219.221 261.366 221.171C248.192 222.238 235.827 234.198 234.392 247.299C230.528 290.539 230.528 332.565 234.392 375.805C235.827 388.869 248.192 400.829 261.366 401.896C316.051 405.76 369.227 405.76 423.912 401.896C437.123 400.792 449.451 388.832 450.886 375.768C454.75 332.528 454.75 290.502 450.886 247.262C449.451 234.198 437.086 222.238 423.912 221.171C396.57 219.221 369.595 218.264 342.658 218.264Z" fill="#585756"/>
<path d="M480.878 420.517H264.089V423.608C264.089 427.104 266.923 429.901 270.382 429.901H474.549C478.045 429.901 480.841 427.067 480.841 423.608V420.517H480.878Z" fill="#585756"/>
<path d="M512.452 229.01H463.288V253.003H512.452V229.01Z" fill="#585756"/>
<path d="M512.452 266.509H463.288V404.325H512.452V266.509Z" fill="#585756"/>
<path d="M503.032 276.923H472.708V278.91H503.032V276.923Z" fill="#3A3938"/>
<path d="M509.619 323.365H466.084V325.352H509.619V323.365Z" fill="#3A3938"/>
<path d="M509.619 334.662H466.084V336.65H509.619V334.662Z" fill="#3A3938"/>
<path d="M509.619 345.96H466.084V347.947H509.619V345.96Z" fill="#3A3938"/>
<path d="M509.619 357.221H466.084V359.208H509.619V357.221Z" fill="#3A3938"/>
<path d="M509.619 368.518H466.084V370.505H509.619V368.518Z" fill="#3A3938"/>
<path d="M509.619 379.816H466.084V381.803H509.619V379.816Z" fill="#3A3938"/>
<path d="M483.675 273.317H474.475V282.517H483.675V273.317Z" fill="#BABABA"/>
<path d="M503.032 289.95H472.708V291.937H503.032V289.95Z" fill="#3A3938"/>
<path d="M494.715 286.307H485.515V295.507H494.715V286.307Z" fill="#BABABA"/>
<path d="M503.032 303.309H472.708V305.296H503.032V303.309Z" fill="#3A3938"/>
<path d="M490.115 299.702H480.915V308.902H490.115V299.702Z" fill="#BABABA"/>
<path d="M479.075 233.72H468.33V239.682H479.075V233.72Z" fill="#3A3938"/>
<path d="M479.075 242.662H468.33V248.624H479.075V242.662Z" fill="#3A3938"/>
<path d="M493.243 233.72H482.498V239.682H493.243V233.72Z" fill="#3A3938"/>
<path d="M493.243 242.662H482.498V248.624H493.243V242.662Z" fill="#3A3938"/>
<path d="M506.381 233.72H495.635V239.682H506.381V233.72Z" fill="#3A3938"/>
<path d="M506.381 242.662H495.635V248.624H506.381V242.662Z" fill="#3A3938"/>
<path d="M493.243 221.024H461.043V223.011H493.243V221.024Z" fill="#C1BDB4"/>
<path d="M517.236 388.354H460.969V390.341H517.236V388.354Z" fill="#3A3938"/>
<path d="M480.878 392.843H470.133V400.608H480.878V392.843Z" fill="#3A3938"/>
<path d="M503.032 401.565C500.345 401.565 498.174 399.393 498.174 396.707C498.174 394.021 500.345 391.849 503.032 391.849C505.718 391.849 507.889 394.021 507.889 396.707C507.889 399.393 505.718 401.565 503.032 401.565ZM503.032 393.837C501.449 393.837 500.161 395.125 500.161 396.707C500.161 398.289 501.449 399.577 503.032 399.577C504.614 399.577 505.902 398.289 505.902 396.707C505.939 395.125 504.614 393.837 503.032 393.837Z" fill="#3A3938"/>
<path d="M314.616 277.843H323.889V271.035H305.342V277.843H296.032V284.651H314.616V277.843Z" fill="#00FFC0"/>
<path d="M286.758 311.92V311.846V305.112V298.304H296.032V291.496V284.651H277.448V291.496V298.304H268.174V305.112V311.846V311.92V318.654H286.758V311.92Z" fill="#00FFC0"/>
<path d="M407.83 298.304V291.496V284.651H389.246V291.496V298.304H398.556V305.112V311.846V311.92V318.654H417.14V311.92V311.846V305.112V298.304H407.83Z" fill="#00FFC0"/>
<path d="M342.805 264.227H324.221V271.035H342.805H361.389V264.227H342.805Z" fill="#00FFC0"/>
<path d="M333.2 332.307H352.078V325.499H361.389V305.112H352.078V298.304H361.389V291.459H352.078V284.651H333.2V291.459H324.221V325.499H333.2V332.307Z" fill="#00FFC0"/>
<path d="M379.973 277.843V271.035H361.389V277.843H370.662V284.651H389.246V277.843H379.973Z" fill="#00FFC0"/>
<path d="M370.662 339.115H361.389V345.923H379.973V339.115H389.246V332.307H370.662V339.115Z" fill="#00FFC0"/>
<path d="M389.246 325.499V332.307H407.83V325.499V318.691H389.246V325.499Z" fill="#00FFC0"/>
<path d="M323.89 345.923V352.768H342.474H361.058V345.923H342.474H323.89Z" fill="#00FFC0"/>
<path d="M314.616 339.115V332.307H296.032V339.115H305.342V345.923H323.889V339.115H314.616Z" fill="#00FFC0"/>
<path d="M296.032 318.691H277.448V325.499V332.307H296.032V325.499V318.691Z" fill="#00FFC0"/>
<path d="M267.033 239.277H248.449V246.085H267.033V239.277Z" fill="#CAFFF1"/>
<path d="M276.344 232.653H257.76V239.461H276.344V232.653Z" fill="#CAFFF1"/>
<path d="M434.29 373.486H415.706V380.294H434.29V373.486Z" fill="#CAFFF1"/>
</svg>
