<svg width="453" height="452" viewBox="0 0 453 452" fill="none" xmlns="http://www.w3.org/2000/svg">
<g opacity="0.5" clip-path="url(#clip0_3011_6892)">
<path d="M449.276 -169.881C427.622 -168.141 407.321 -148.226 405.194 -126.572C404.807 -123.479 404.807 -120.192 405.194 -117.292C406.741 -100.471 400.36 -83.844 388.18 -72.0502L385.473 -69.5368C379.673 -63.9299 367.493 -60.4497 355.505 -58.323C334.431 -54.6495 312.777 -54.6495 291.703 -58.323C279.716 -60.4497 267.535 -63.9299 261.735 -69.5368L259.222 -72.0502C247.041 -83.844 240.661 -100.471 242.208 -117.292C242.401 -120.385 242.401 -123.479 242.208 -126.572C240.081 -148.226 219.78 -168.141 197.933 -169.881C168.158 -172.201 143.604 -147.646 145.924 -117.872C147.857 -94.4777 166.611 -75.5303 190.006 -73.5969C193.099 -73.4036 196.193 -73.4036 199.093 -73.5969C216.3 -75.337 233.507 -70.1168 245.881 -57.9363L248.201 -55.6162C261.542 -42.6624 267.342 -23.715 264.442 -5.34762C263.669 -0.900779 263.475 3.73941 263.862 8.57293C265.989 37.9607 289.963 61.935 319.351 63.8684C354.345 66.1885 383.54 38.5407 383.54 4.12609C383.54 0.645951 383.153 -2.83418 382.573 -6.12097C379.48 -24.295 385.86 -42.8557 399.2 -55.8096L401.327 -57.9363C413.701 -69.9234 430.908 -75.337 448.116 -73.5969C451.016 -73.2102 454.109 -73.2102 457.203 -73.5969C480.597 -75.5303 499.351 -94.4777 501.284 -117.872C503.604 -147.646 479.05 -172.201 449.276 -169.881Z" fill="#F3F4F6"/>
<path d="M24.1191 3.93278C25.8591 25.5869 45.7732 45.8877 67.4274 48.0145C70.5208 48.4012 73.8076 48.4012 76.7077 48.0145C93.5284 46.4678 110.156 52.848 121.949 65.0285L124.463 67.7352C130.07 73.5355 133.55 85.7159 135.677 97.7031C139.35 118.777 139.35 140.431 135.677 161.506C133.55 173.493 130.07 185.673 124.463 191.473L121.949 193.987C110.156 206.167 93.5284 212.548 76.7077 211.001C73.6143 210.807 70.5208 210.807 67.4274 211.001C45.7732 213.128 25.8591 233.428 24.1191 255.276C21.799 285.05 46.3532 309.798 76.3211 307.284C99.7153 305.351 118.663 286.597 120.596 263.203C120.789 260.109 120.789 257.016 120.596 254.116C118.856 236.908 124.076 219.701 136.257 207.327L138.577 205.007C151.531 191.667 170.478 185.866 188.845 188.767C193.292 189.54 197.932 189.733 202.766 189.347C232.154 187.22 256.128 163.246 258.061 133.858C260.381 98.8631 232.734 69.6687 198.319 69.6687C194.839 69.6687 191.359 70.0553 188.072 70.6354C169.898 73.7288 151.337 67.3486 138.383 54.0081L136.257 51.8813C124.27 39.5075 118.856 22.3002 120.596 5.09282C120.983 2.19271 120.983 -0.900737 120.596 -3.99419C118.469 -27.3884 99.522 -46.3358 76.1277 -48.0759C46.3532 -50.396 21.799 -25.8417 24.1191 3.93278Z" fill="#F3F4F6"/>
<path d="M197.933 429.089C219.587 427.349 239.888 407.435 242.014 385.781C242.401 382.687 242.401 379.4 242.014 376.5C240.468 359.68 246.848 343.052 259.028 331.259L261.542 328.745C267.342 323.138 279.523 319.658 291.51 317.531C312.584 313.858 334.238 313.858 355.312 317.531C367.299 319.658 379.48 323.138 385.28 328.745L387.793 331.259C399.974 343.052 406.354 359.68 404.807 376.5C404.614 379.594 404.614 382.687 404.807 385.781C406.934 407.435 427.235 427.349 448.889 429.089C478.664 431.409 503.411 406.855 500.898 376.887C498.964 353.493 480.21 334.545 456.816 332.612C453.723 332.419 450.629 332.419 447.729 332.612C430.522 334.352 413.314 329.132 400.941 316.951L398.62 314.631C385.28 301.677 379.48 282.73 382.38 264.363C383.153 259.916 383.347 255.276 382.96 250.442C380.833 221.054 356.859 197.08 327.471 195.147C292.476 192.827 263.282 220.474 263.282 254.889C263.282 258.369 263.669 261.849 264.249 265.136C267.342 283.31 260.962 301.871 247.621 314.825L245.495 316.951C233.121 328.938 215.913 334.352 198.706 332.612C195.806 332.225 192.712 332.225 189.619 332.612C166.225 334.545 147.471 353.493 145.537 376.887C143.604 406.855 168.158 431.409 197.933 429.089Z" fill="#F3F4F6"/>
<path d="M623.089 255.276C621.349 233.622 601.435 213.321 579.781 211.194C576.687 210.808 573.4 210.808 570.5 211.194C553.68 212.741 537.052 206.361 525.259 194.18L522.745 191.473C517.138 185.673 513.658 173.493 511.531 161.506C507.858 140.431 507.858 118.777 511.531 97.7032C513.658 85.716 517.138 73.5356 522.745 67.7353L525.259 65.2219C537.052 53.0414 553.68 46.6612 570.5 48.2079C573.594 48.4012 576.687 48.4012 579.781 48.2079C601.435 46.0812 621.349 25.7804 623.089 4.12619C625.409 -25.6483 600.855 -50.3959 570.887 -47.8825C547.493 -45.9491 528.545 -27.195 526.612 -3.80078C526.419 -0.707327 526.419 2.38612 526.612 5.28623C528.352 22.4936 523.132 39.7009 510.951 52.0747L508.631 54.3948C495.677 67.7353 476.73 73.5356 458.363 70.6354C453.916 69.8621 449.276 69.6687 444.442 70.0554C415.054 72.1822 391.08 96.1564 389.147 125.544C386.827 160.539 414.474 189.733 448.889 189.733C452.369 189.733 455.849 189.347 459.136 188.767C477.31 185.673 495.871 192.053 508.825 205.394L510.951 207.521C522.938 219.895 528.352 237.102 526.612 254.309C526.225 257.209 526.225 260.303 526.612 263.396C528.545 286.79 547.493 305.545 570.887 307.478C600.855 309.605 625.409 285.05 623.089 255.276Z" fill="#F3F4F6"/>
<path d="M194.066 38.734C215.421 38.734 232.734 21.4217 232.734 0.0658684C232.734 -21.29 215.421 -38.6023 194.066 -38.6023C172.71 -38.6023 155.397 -21.29 155.397 0.0658684C155.397 21.4217 172.71 38.734 194.066 38.734Z" fill="#F3F4F6"/>
<path d="M194.066 297.811C215.421 297.811 232.734 280.498 232.734 259.143C232.734 237.787 215.421 220.474 194.066 220.474C172.71 220.474 155.397 237.787 155.397 259.143C155.397 280.498 172.71 297.811 194.066 297.811Z" fill="#F3F4F6"/>
<path d="M453.143 297.811C474.499 297.811 491.811 280.498 491.811 259.143C491.811 237.787 474.499 220.474 453.143 220.474C431.787 220.474 414.475 237.787 414.475 259.143C414.475 280.498 431.787 297.811 453.143 297.811Z" fill="#F3F4F6"/>
<path d="M453.143 38.734C474.499 38.734 491.811 21.4217 491.811 0.0658684C491.811 -21.29 474.499 -38.6023 453.143 -38.6023C431.787 -38.6023 414.475 -21.29 414.475 0.0658684C414.475 21.4217 431.787 38.734 453.143 38.734Z" fill="#F3F4F6"/>
<path d="M323.604 168.272C344.96 168.272 362.272 150.96 362.272 129.604C362.272 108.248 344.96 90.936 323.604 90.936C302.248 90.936 284.936 108.248 284.936 129.604C284.936 150.96 302.248 168.272 323.604 168.272Z" fill="#F3F4F6"/>
</g>
<defs>
<clipPath id="clip0_3011_6892">
<rect width="453" height="452" fill="white"/>
</clipPath>
</defs>
</svg>
